<mxfile host="app.diagrams.net" agent="Mozilla/5.0 (Windows NT 10.0; Win64; x64) AppleWebKit/537.36 (KHTML, like Gecko) Chrome/139.0.0.0 Safari/537.36" version="28.1.1">
  <diagram name="PÃ¡gina-1" id="C1H2fYJHxCzxbaTLTrv9">
    <mxGraphModel dx="3021" dy="1154" grid="1" gridSize="10" guides="1" tooltips="1" connect="1" arrows="1" fold="1" page="1" pageScale="1" pageWidth="827" pageHeight="1169" math="0" shadow="0">
      <root>
        <mxCell id="0" />
        <mxCell id="1" parent="0" />
        <mxCell id="AkoYd4fG2ZXYChll1lo0-15" style="edgeStyle=orthogonalEdgeStyle;rounded=0;orthogonalLoop=1;jettySize=auto;html=1;exitX=1;exitY=0.5;exitDx=0;exitDy=0;entryX=0;entryY=0.5;entryDx=0;entryDy=0;" edge="1" parent="1" source="AkoYd4fG2ZXYChll1lo0-12" target="AkoYd4fG2ZXYChll1lo0-14">
          <mxGeometry relative="1" as="geometry" />
        </mxCell>
        <mxCell id="AkoYd4fG2ZXYChll1lo0-22" style="edgeStyle=orthogonalEdgeStyle;rounded=0;orthogonalLoop=1;jettySize=auto;html=1;exitX=0.5;exitY=1;exitDx=0;exitDy=0;entryX=0.5;entryY=0;entryDx=0;entryDy=0;" edge="1" parent="1" source="AkoYd4fG2ZXYChll1lo0-12" target="AkoYd4fG2ZXYChll1lo0-16">
          <mxGeometry relative="1" as="geometry" />
        </mxCell>
        <mxCell id="AkoYd4fG2ZXYChll1lo0-50" style="edgeStyle=orthogonalEdgeStyle;rounded=0;orthogonalLoop=1;jettySize=auto;html=1;exitX=0.5;exitY=0;exitDx=0;exitDy=0;entryX=0.5;entryY=1;entryDx=0;entryDy=0;" edge="1" parent="1" source="AkoYd4fG2ZXYChll1lo0-12" target="AkoYd4fG2ZXYChll1lo0-32">
          <mxGeometry relative="1" as="geometry" />
        </mxCell>
        <mxCell id="AkoYd4fG2ZXYChll1lo0-12" value="main.py" style="ellipse;whiteSpace=wrap;html=1;" vertex="1" parent="1">
          <mxGeometry x="260" y="180" width="120" height="80" as="geometry" />
        </mxCell>
        <mxCell id="AkoYd4fG2ZXYChll1lo0-25" style="edgeStyle=orthogonalEdgeStyle;rounded=0;orthogonalLoop=1;jettySize=auto;html=1;exitX=0.5;exitY=1;exitDx=0;exitDy=0;entryX=0.5;entryY=0;entryDx=0;entryDy=0;" edge="1" parent="1" source="AkoYd4fG2ZXYChll1lo0-14" target="AkoYd4fG2ZXYChll1lo0-24">
          <mxGeometry relative="1" as="geometry" />
        </mxCell>
        <mxCell id="AkoYd4fG2ZXYChll1lo0-14" value="Prompt" style="rounded=0;whiteSpace=wrap;html=1;" vertex="1" parent="1">
          <mxGeometry x="490" y="190" width="120" height="60" as="geometry" />
        </mxCell>
        <mxCell id="AkoYd4fG2ZXYChll1lo0-26" style="edgeStyle=orthogonalEdgeStyle;rounded=0;orthogonalLoop=1;jettySize=auto;html=1;exitX=1;exitY=0.5;exitDx=0;exitDy=0;entryX=0;entryY=0.5;entryDx=0;entryDy=0;" edge="1" parent="1" source="AkoYd4fG2ZXYChll1lo0-16" target="AkoYd4fG2ZXYChll1lo0-24">
          <mxGeometry relative="1" as="geometry" />
        </mxCell>
        <mxCell id="AkoYd4fG2ZXYChll1lo0-16" value="Gets IA M&lt;span style=&quot;background-color: transparent; color: light-dark(rgb(0, 0, 0), rgb(255, 255, 255));&quot;&gt;odels&lt;/span&gt;" style="rounded=0;whiteSpace=wrap;html=1;" vertex="1" parent="1">
          <mxGeometry x="260" y="300" width="120" height="60" as="geometry" />
        </mxCell>
        <mxCell id="AkoYd4fG2ZXYChll1lo0-21" style="edgeStyle=orthogonalEdgeStyle;rounded=0;orthogonalLoop=1;jettySize=auto;html=1;exitX=0.5;exitY=1;exitDx=0;exitDy=0;" edge="1" parent="1" source="AkoYd4fG2ZXYChll1lo0-20" target="AkoYd4fG2ZXYChll1lo0-14">
          <mxGeometry relative="1" as="geometry" />
        </mxCell>
        <mxCell id="AkoYd4fG2ZXYChll1lo0-38" value="Generates Prompt" style="edgeLabel;html=1;align=center;verticalAlign=middle;resizable=0;points=[];" vertex="1" connectable="0" parent="AkoYd4fG2ZXYChll1lo0-21">
          <mxGeometry x="-0.1578" y="-1" relative="1" as="geometry">
            <mxPoint as="offset" />
          </mxGeometry>
        </mxCell>
        <mxCell id="AkoYd4fG2ZXYChll1lo0-20" value="functions.py" style="ellipse;whiteSpace=wrap;html=1;" vertex="1" parent="1">
          <mxGeometry x="490" y="30" width="120" height="80" as="geometry" />
        </mxCell>
        <mxCell id="AkoYd4fG2ZXYChll1lo0-55" style="edgeStyle=orthogonalEdgeStyle;rounded=0;orthogonalLoop=1;jettySize=auto;html=1;exitX=0.5;exitY=1;exitDx=0;exitDy=0;entryX=1;entryY=0.5;entryDx=0;entryDy=0;" edge="1" parent="1" source="AkoYd4fG2ZXYChll1lo0-24" target="AkoYd4fG2ZXYChll1lo0-56">
          <mxGeometry relative="1" as="geometry">
            <mxPoint x="550" y="450" as="targetPoint" />
          </mxGeometry>
        </mxCell>
        <mxCell id="AkoYd4fG2ZXYChll1lo0-57" value="Saves Response in .txt" style="edgeLabel;html=1;align=center;verticalAlign=middle;resizable=0;points=[];" vertex="1" connectable="0" parent="AkoYd4fG2ZXYChll1lo0-55">
          <mxGeometry x="0.3" relative="1" as="geometry">
            <mxPoint as="offset" />
          </mxGeometry>
        </mxCell>
        <mxCell id="AkoYd4fG2ZXYChll1lo0-24" value="Runs IA Models" style="rounded=0;whiteSpace=wrap;html=1;" vertex="1" parent="1">
          <mxGeometry x="490" y="300" width="120" height="60" as="geometry" />
        </mxCell>
        <mxCell id="AkoYd4fG2ZXYChll1lo0-39" style="edgeStyle=orthogonalEdgeStyle;rounded=0;orthogonalLoop=1;jettySize=auto;html=1;exitX=0;exitY=0.5;exitDx=0;exitDy=0;entryX=1;entryY=0.5;entryDx=0;entryDy=0;" edge="1" parent="1" source="AkoYd4fG2ZXYChll1lo0-29" target="AkoYd4fG2ZXYChll1lo0-20">
          <mxGeometry relative="1" as="geometry" />
        </mxCell>
        <mxCell id="AkoYd4fG2ZXYChll1lo0-40" value="Gets Commit" style="edgeLabel;html=1;align=center;verticalAlign=middle;resizable=0;points=[];" vertex="1" connectable="0" parent="AkoYd4fG2ZXYChll1lo0-39">
          <mxGeometry x="-0.1304" y="-2" relative="1" as="geometry">
            <mxPoint as="offset" />
          </mxGeometry>
        </mxCell>
        <mxCell id="AkoYd4fG2ZXYChll1lo0-29" value="github" style="rhombus;whiteSpace=wrap;html=1;" vertex="1" parent="1">
          <mxGeometry x="720" y="30" width="80" height="80" as="geometry" />
        </mxCell>
        <mxCell id="AkoYd4fG2ZXYChll1lo0-42" style="edgeStyle=orthogonalEdgeStyle;rounded=0;orthogonalLoop=1;jettySize=auto;html=1;exitX=1;exitY=0.5;exitDx=0;exitDy=0;entryX=0;entryY=0.5;entryDx=0;entryDy=0;" edge="1" parent="1" source="AkoYd4fG2ZXYChll1lo0-31" target="AkoYd4fG2ZXYChll1lo0-12">
          <mxGeometry relative="1" as="geometry" />
        </mxCell>
        <mxCell id="AkoYd4fG2ZXYChll1lo0-43" style="edgeStyle=orthogonalEdgeStyle;rounded=0;orthogonalLoop=1;jettySize=auto;html=1;exitX=0.5;exitY=1;exitDx=0;exitDy=0;entryX=0;entryY=0.5;entryDx=0;entryDy=0;" edge="1" parent="1" source="AkoYd4fG2ZXYChll1lo0-31" target="AkoYd4fG2ZXYChll1lo0-16">
          <mxGeometry relative="1" as="geometry" />
        </mxCell>
        <mxCell id="AkoYd4fG2ZXYChll1lo0-31" value="Ollama" style="rhombus;whiteSpace=wrap;html=1;" vertex="1" parent="1">
          <mxGeometry x="130" y="180" width="80" height="80" as="geometry" />
        </mxCell>
        <mxCell id="AkoYd4fG2ZXYChll1lo0-51" style="edgeStyle=orthogonalEdgeStyle;rounded=0;orthogonalLoop=1;jettySize=auto;html=1;exitX=0;exitY=0.5;exitDx=0;exitDy=0;entryX=0.5;entryY=0;entryDx=0;entryDy=0;" edge="1" parent="1" source="AkoYd4fG2ZXYChll1lo0-32" target="AkoYd4fG2ZXYChll1lo0-52">
          <mxGeometry relative="1" as="geometry">
            <mxPoint x="50" y="220" as="targetPoint" />
          </mxGeometry>
        </mxCell>
        <mxCell id="AkoYd4fG2ZXYChll1lo0-53" value="Creates Folder if it doesn&#39;t exist" style="edgeLabel;html=1;align=center;verticalAlign=middle;resizable=0;points=[];" vertex="1" connectable="0" parent="AkoYd4fG2ZXYChll1lo0-51">
          <mxGeometry x="-0.0725" y="-2" relative="1" as="geometry">
            <mxPoint as="offset" />
          </mxGeometry>
        </mxCell>
        <mxCell id="AkoYd4fG2ZXYChll1lo0-32" value="os" style="rhombus;whiteSpace=wrap;html=1;" vertex="1" parent="1">
          <mxGeometry x="280" y="30" width="80" height="80" as="geometry" />
        </mxCell>
        <mxCell id="AkoYd4fG2ZXYChll1lo0-61" style="edgeStyle=orthogonalEdgeStyle;rounded=0;orthogonalLoop=1;jettySize=auto;html=1;exitX=1;exitY=0.5;exitDx=0;exitDy=0;entryX=0;entryY=0.5;entryDx=0;entryDy=0;" edge="1" parent="1" source="AkoYd4fG2ZXYChll1lo0-49" target="AkoYd4fG2ZXYChll1lo0-60">
          <mxGeometry relative="1" as="geometry" />
        </mxCell>
        <mxCell id="AkoYd4fG2ZXYChll1lo0-49" value="csv_writer" style="ellipse;whiteSpace=wrap;html=1;" vertex="1" parent="1">
          <mxGeometry y="540" width="120" height="80" as="geometry" />
        </mxCell>
        <mxCell id="AkoYd4fG2ZXYChll1lo0-52" value="Folders" style="rounded=0;whiteSpace=wrap;html=1;" vertex="1" parent="1">
          <mxGeometry x="-40" y="190" width="120" height="60" as="geometry" />
        </mxCell>
        <mxCell id="AkoYd4fG2ZXYChll1lo0-59" style="edgeStyle=orthogonalEdgeStyle;rounded=0;orthogonalLoop=1;jettySize=auto;html=1;exitX=0;exitY=0.5;exitDx=0;exitDy=0;entryX=0.5;entryY=1;entryDx=0;entryDy=0;" edge="1" parent="1" source="AkoYd4fG2ZXYChll1lo0-56" target="AkoYd4fG2ZXYChll1lo0-52">
          <mxGeometry relative="1" as="geometry" />
        </mxCell>
        <mxCell id="AkoYd4fG2ZXYChll1lo0-56" value="Response" style="rounded=0;whiteSpace=wrap;html=1;" vertex="1" parent="1">
          <mxGeometry x="260" y="400" width="120" height="60" as="geometry" />
        </mxCell>
        <mxCell id="AkoYd4fG2ZXYChll1lo0-62" style="edgeStyle=orthogonalEdgeStyle;rounded=0;orthogonalLoop=1;jettySize=auto;html=1;exitX=0.5;exitY=1;exitDx=0;exitDy=0;entryX=0.5;entryY=0;entryDx=0;entryDy=0;" edge="1" parent="1" source="AkoYd4fG2ZXYChll1lo0-60" target="AkoYd4fG2ZXYChll1lo0-63">
          <mxGeometry relative="1" as="geometry">
            <mxPoint x="580" y="710" as="targetPoint" />
          </mxGeometry>
        </mxCell>
        <mxCell id="AkoYd4fG2ZXYChll1lo0-60" value="Folders" style="rounded=0;whiteSpace=wrap;html=1;" vertex="1" parent="1">
          <mxGeometry x="260" y="550" width="120" height="60" as="geometry" />
        </mxCell>
        <mxCell id="AkoYd4fG2ZXYChll1lo0-65" style="edgeStyle=orthogonalEdgeStyle;rounded=0;orthogonalLoop=1;jettySize=auto;html=1;exitX=0.5;exitY=1;exitDx=0;exitDy=0;entryX=0.5;entryY=0;entryDx=0;entryDy=0;" edge="1" parent="1" source="AkoYd4fG2ZXYChll1lo0-63" target="AkoYd4fG2ZXYChll1lo0-64">
          <mxGeometry relative="1" as="geometry" />
        </mxCell>
        <mxCell id="AkoYd4fG2ZXYChll1lo0-63" value="Response" style="rounded=0;whiteSpace=wrap;html=1;" vertex="1" parent="1">
          <mxGeometry x="260" y="700" width="120" height="60" as="geometry" />
        </mxCell>
        <mxCell id="AkoYd4fG2ZXYChll1lo0-71" style="edgeStyle=orthogonalEdgeStyle;rounded=0;orthogonalLoop=1;jettySize=auto;html=1;exitX=0;exitY=0.5;exitDx=0;exitDy=0;entryX=1;entryY=0.5;entryDx=0;entryDy=0;" edge="1" parent="1" source="AkoYd4fG2ZXYChll1lo0-64" target="AkoYd4fG2ZXYChll1lo0-67">
          <mxGeometry relative="1" as="geometry" />
        </mxCell>
        <mxCell id="AkoYd4fG2ZXYChll1lo0-72" value="Writes Result in CSV File" style="edgeLabel;html=1;align=center;verticalAlign=middle;resizable=0;points=[];" vertex="1" connectable="0" parent="AkoYd4fG2ZXYChll1lo0-71">
          <mxGeometry x="0.2083" y="1" relative="1" as="geometry">
            <mxPoint x="19" y="-1" as="offset" />
          </mxGeometry>
        </mxCell>
        <mxCell id="AkoYd4fG2ZXYChll1lo0-64" value="Gets Results" style="rounded=0;whiteSpace=wrap;html=1;" vertex="1" parent="1">
          <mxGeometry x="520" y="850" width="120" height="60" as="geometry" />
        </mxCell>
        <mxCell id="AkoYd4fG2ZXYChll1lo0-67" value="CSV File" style="rounded=0;whiteSpace=wrap;html=1;" vertex="1" parent="1">
          <mxGeometry x="170" y="850" width="120" height="60" as="geometry" />
        </mxCell>
        <mxCell id="AkoYd4fG2ZXYChll1lo0-79" style="edgeStyle=orthogonalEdgeStyle;rounded=0;orthogonalLoop=1;jettySize=auto;html=1;exitX=0;exitY=0.5;exitDx=0;exitDy=0;entryX=1;entryY=0.5;entryDx=0;entryDy=0;" edge="1" parent="1" source="AkoYd4fG2ZXYChll1lo0-78" target="AkoYd4fG2ZXYChll1lo0-60">
          <mxGeometry relative="1" as="geometry" />
        </mxCell>
        <mxCell id="AkoYd4fG2ZXYChll1lo0-80" value="Used to iterate for file in folder" style="edgeLabel;html=1;align=center;verticalAlign=middle;resizable=0;points=[];" vertex="1" connectable="0" parent="AkoYd4fG2ZXYChll1lo0-79">
          <mxGeometry x="0.0049" y="-1" relative="1" as="geometry">
            <mxPoint as="offset" />
          </mxGeometry>
        </mxCell>
        <mxCell id="AkoYd4fG2ZXYChll1lo0-78" value="os" style="rhombus;whiteSpace=wrap;html=1;" vertex="1" parent="1">
          <mxGeometry x="720" y="540" width="80" height="80" as="geometry" />
        </mxCell>
      </root>
    </mxGraphModel>
  </diagram>
</mxfile>
